PathFileType	3	(X/Y/Z)	D:\Jess\PFP\Labelled\PA03\20250519\SRRun01.trc
DataRate	CameraRate	NumFrames	NumMarkers	Units	OrigDataRate	OrigDataStartFrame	OrigNumFrames
250.0	250.0	4	33	mm	250.0	36250	2501
Frame#	Time	C7			T10			CLAV			LSHO			RSHO			LASIS			RASIS			LPSIS			RPSIS			LILCR			RILCR			LGTR			LTHI			LLTHI			LLEP			LPSH			LLSH			LDSH			LLMAL			LTOE			L5TH			LHEE			RGTR			RTHI			RLTHI			RLEP			RPSH			RLSH			RDSH			RLMAL			RTOE			R5TH			RHEE			
		X1	Y1	Z1	X2	Y2	Z2	X3	Y3	Z3	X4	Y4	Z4	X5	Y5	Z5	X6	Y6	Z6	X7	Y7	Z7	X8	Y8	Z8	X9	Y9	Z9	X10	Y10	Z10	X11	Y11	Z11	X12	Y12	Z12	X13	Y13	Z13	X14	Y14	Z14	X15	Y15	Z15	X16	Y16	Z16	X17	Y17	Z17	X18	Y18	Z18	X19	Y19	Z19	X20	Y20	Z20	X21	Y21	Z21	X22	Y22	Z22	X23	Y23	Z23	X24	Y24	Z24	X25	Y25	Z25	X26	Y26	Z26	X27	Y27	Z27	X28	Y28	Z28	X29	Y29	Z29	X30	Y30	Z30	X31	Y31	Z31	X32	Y32	Z32	X33	Y33	Z33	

1251	144.996	624.7697687554489	1516.971095792675	-223.5352375416995	517.560027816362	1303.97490565473	-256.927802211784	734.8553658870803	1403.467198027887	-194.4571658923275	708.0504475859628	1480.297062415588	-360.9301439369482	632.7333372366073	1473.749542567801	-69.78174089054565	689.2559832323383	995.9626867452621	-343.6778429936541	647.7078139125169	1011.927884067032	-98.3202247749463	503.5339097851617	1067.109711248952	-263.8138207490446	491.8062210293885	1064.663067899844	-224.5131076664694	634.9208318461805	1078.124254254024	-386.6632878406424	578.0394681766327	1091.095688115781	-76.28195888171359	595.7132777100057	923.0525058144418	-407.6645151297958	647.2544449237654	707.645097965324	-299.0296585926899	519.1227831209084	649.4076880483864	-361.7066205446612	442.9991191254517	525.3368376982096	-333.5570631288094	413.0741819517226	427.4724499516586	-288.6638942735291	266.7145165625138	434.3940956034883	-345.0322986961442	219.4665099590897	329.7749738339708	-296.6701166158319	99.26156635235662	335.0948905216565	-330.8624202039024	77.12646414755731	170.6617517722686	-311.9570192026671	31.2462466257461	193.4696538873297	-347.3936417578545	64.70707760161947	381.7593314650504	-283.3548975917178	599.7443880846491	918.4391089466008	-47.81196541441177	753.497627337244	785.5555590545913	-121.6749287474332	689.1046368516246	678.2609655391539	-57.77218131073177	741.9500767683799	540.8111405362404	-81.44704288890074	804.7409530959231	455.0567864595683	-128.6361127422568	760.2459257851455	324.9405803859783	-69.50391523454702	821.816683480781	246.1629949595552	-123.1610751240312	793.3225904940226	126.0252062119342	-89.69774147393609	942.8371115576228	85.16460485520332	-124.598048819142	913.7865475411163	51.46598567744843	-89.82137340916006	727.110818071217	101.1573602008177	-138.5966108756492	
1252	145	624.201214363113	1514.19899134471	-222.4570499669176	516.7729399395738	1301.052136368955	-255.512336554949	734.5294894141392	1400.532949899397	-194.2268824538046	706.6936409682326	1477.500783220867	-360.5996284774582	633.3617205715618	1470.785162234507	-68.71563940132438	689.5700437588454	993.7116857168186	-343.5096947145344	647.7051970195878	1009.155048445113	-97.51431145889157	503.4332355694739	1063.075076759066	-263.7859647011369	491.7336711763311	1060.547048434825	-224.5037777856618	634.356370845025	1075.370258621879	-386.803091207064	577.1767296107419	1087.174710536629	-75.72146437323843	596.6639583325368	919.6923445466475	-407.4565872377191	650.0457106674949	704.9098000228461	-299.4524728200802	522.623192469047	645.1754312915755	-362.2768646849537	447.9565512627015	521.4960279120604	-334.1145214208889	416.7441841354237	424.0248362853807	-289.813314264105	270.1255940961789	435.1272915782016	-345.2772098764698	220.4570954731704	331.3971014369299	-297.5029182303949	100.3689484585723	340.056641781897	-331.2513412502666	73.69058823288682	176.4593144078604	-312.8953943026172	28.45952279305936	200.6710825327023	-348.0811993291194	67.42468255883131	387.4044279340471	-283.4165270949702	599.564946987493	915.5860393454933	-47.77780064916735	754.2578781967405	784.0977306966588	-120.4430447233858	689.2898488845957	676.2376840968564	-57.19129172646866	741.0727764375836	537.7956847793037	-80.61173413993181	803.0809197460248	450.8710742420051	-127.6526427468927	755.5513066748563	321.2692775194722	-69.86559585283408	815.2833808020675	241.6272674619806	-124.0914494336408	783.7523401970208	122.6439105277091	-91.18875028955631	933.0723536807188	81.15306801409723	-125.3002789625208	903.4842476476728	48.59075636366832	-89.74643504115437	717.1796046233081	98.29086898637651	-139.8539494881609	
1253	145.004	623.5900686989693	1511.305261001093	-221.3797136593551	515.9481567364257	1297.959310335435	-254.068342495381	734.1809739916889	1397.474085225572	-194.0265661019129	705.1859490243012	1474.588192525436	-360.3416672865109	633.9826629126771	1467.688577198004	-67.63775651427393	689.8544990863162	991.2367217937865	-343.3776298456456	647.7085950417953	1006.3547360372	-96.78472772345117	503.297987173574	1058.909572571168	-263.8084596467194	491.6268032154915	1056.363466434282	-224.5453381016264	633.8033569947844	1072.353275172208	-386.9690963197644	576.3610695776633	1083.189315106457	-75.15337149848679	597.5623764079805	916.1148305478409	-407.2129774319759	652.822418277452	702.0428936261122	-299.9567951535428	526.1178940875969	640.8564316624474	-362.8979728836123	452.977597695622	517.569349327197	-334.7816971357464	420.6114632311485	420.5163801371814	-291.0366341803236	273.8392198689183	435.6942649267579	-345.5976853532034	221.8279886668914	332.8864575489283	-298.3964984480713	101.9846031205133	344.8832263677905	-331.6629876956808	70.65452686196303	182.2535598763712	-313.8736298758022	26.13288319450753	207.9031650586681	-348.7769467371273	70.75969176550838	392.8609822802718	-283.460897265713	599.499313928124	912.8342116213861	-47.67861728464985	754.9421102483261	782.471673047225	-119.1691088026776	689.3204329345042	674.1086171639034	-56.57819916889562	740.1533630528824	534.7038554495683	-79.79478139226683	801.3060807141893	446.6169829911807	-126.8070668510239	750.7080284109562	317.6273334654565	-70.32766731556647	808.3983326875036	237.1535888721086	-125.263869466832	773.7626336284242	119.4270925243447	-92.88325958874577	922.9009894364	77.57652568657045	-126.165404662596	892.8476565428044	46.16083991066711	-89.78851948976408	706.8106732081509	95.45476730771038	-141.2345991340783	
1254	145.008	622.945066416994	1508.310079490584	-220.3029069076547	515.0857328127985	1294.718800771268	-252.5961712055639	733.8149938846745	1394.305744122727	-193.8550403673557	703.533494957258	1471.572613891361	-360.1613236216044	634.591712798432	1464.474432581374	-66.54566480324024	690.101059441103	988.539806822442	-343.2785366509883	647.7034739971137	1003.534480194598	-96.1341837033893	503.1184441499771	1054.647061608881	-263.8836651666886	491.47443631673	1052.149255246729	-224.6378883265934	633.2658433191106	1069.081076862999	-387.1558894451595	575.6073835847014	1079.172563785233	-74.5817071000892	598.4100997032426	912.3356831601358	-406.9348264868071	655.5815113466457	699.0622434565427	-300.5337219497802	529.6047798614243	636.4685362793778	-363.5634522862833	458.062805064149	513.5679156169916	-335.5573790724064	424.6731763648888	416.9631890678847	-292.3197267921381	277.8492702597299	436.0817899490359	-345.9970884164975	223.5794310037015	334.2358401700524	-299.3355687236171	104.1068695047712	349.5537437248146	-332.0922201931564	68.04205848776647	188.0224923955581	-314.8852641953256	24.29045801328742	215.1357916127461	-349.4829020528609	74.69847174378694	398.1025874079473	-283.487204980919	599.5244834004716	910.1769215347155	-47.50887902741724	755.5202423940833	780.6451209732974	-117.8517541327331	689.1778882869544	671.8561404830916	-55.94207153071171	739.2129907788307	531.5624087345209	-79.0022735655196	799.4160686033716	442.3511204654158	-126.1310685439097	745.7640652231229	314.0735970373402	-70.87902854159987	801.2139154278146	232.8118892807685	-126.6627209892309	763.442217667042	116.4345935201163	-94.74923865133921	912.3987529477172	74.46777330590557	-127.1783603167969	881.9554157854882	44.19395289004073	-89.95062493211152	696.0882080535594	92.7140071886032	-142.709760834393	
